<?xml version="1.0" encoding="UTF-8"?>
<svg width="256px" height="256px" viewBox="0 0 256 256" version="1.1" xmlns="http://www.w3.org/2000/svg" xmlns:xlink="http://www.w3.org/1999/xlink">
    <!-- Generator: Sketch 52 (66869) - http://www.bohemiancoding.com/sketch -->
    <title>icon-256x256</title>
    <desc>Created with Sketch.</desc>
    <g id="icon-256x256" stroke="none" stroke-width="1" fill="none" fill-rule="evenodd">
        <rect fill="#8144E5" x="0" y="0" width="256" height="256"></rect>
        <path d="M194.536824,172.476325 L137.377065,201.771398 C131.483421,204.742867 124.516579,204.742867 118.622935,201.771398 L61.4631761,172.476325 C55.625738,169.477475 52,163.903036 52,157.878319 L52,68.8313837 C52,59.5376502 60.4389051,52 70.8447731,52 L185.155227,52 C195.570159,52 204,59.5376502 204,68.8313837 L204,157.878319 C204,163.903036 200.392391,169.477475 194.536824,172.476325 Z M128,106.425806 C135.582335,106.425806 141.729032,100.279109 141.729032,92.6967742 C141.729032,85.114439 135.582335,78.9677419 128,78.9677419 C120.417665,78.9677419 114.270968,85.114439 114.270968,92.6967742 C114.270968,100.279109 120.417665,106.425806 128,106.425806 Z" id="Combined-Shape-Copy-4" fill="#FFFFFF" fill-rule="nonzero"></path>
    </g>
</svg>